# xmcd
#
# Track frame offsets:
#	150
#	16423
#	32811
#	48864
#	64779
#	78159
#	92669
#	107090
#	121043
#	136840
#	150168
#	163192
#	175595
#	192354
#	208711
#	222580
#	238127
#	253701
#	269687
#
# Disc length: 3769 seconds
#
# Revision: 1
# Processed by: cddbd v1.5.2PL0 Copyright (c) Steve Scherf et al.
# Submitted via: audiograbber 1.83.01
#
DISCID=020eb713
DTITLE=Various Artist - Country Oct 2012
DYEAR=2012
DGENRE=Country
TTITLE0=Tim Dugger - I Called Her Tennessee
TTITLE1=Tyler Farr - Hello Goodbye
TTITLE2=Laura Bell Bundy - Thats What Angels Do
TTITLE3=Lonestar - The Countdown
TTITLE4=Jason Cassidy - Ride OF Your Life
TTITLE5=Jaida Dreyer - Confessions
TTITLE6=Bucky Covington ft Shooter Jennings - Drinking Side Of Country
TTITLE7=Eli Young Band - Say Goodnight
TTITLE8=Craig Morgan - More Trucks Than Cars
TTITLE9=HER and Kings Country - Family Tree
TTITLE10=Maggie Sajak - If I Was Gonna Go
TTITLE11=Toby Keith - I Like The Girls That Drink Beer
TTITLE12=Brantley Gilbert - Kick It In The Sticks (Clean Edit)
TTITLE13=Corey Wagar - Take Ya Back
TTITLE14=Joanna Smith - We Cant Be Friends
TTITLE15=Florida Georgia Line - Cruise
TTITLE16=Dee Hilligoss - Too Soon
TTITLE17=Britt and Blaire - Young Summer
TTITLE18=JB and The Moonshine Band - No Better Than This
EXTD=
EXTT0=
EXTT1=
EXTT2=
EXTT3=
EXTT4=
EXTT5=
EXTT6=
EXTT7=
EXTT8=
EXTT9=
EXTT10=
EXTT11=
EXTT12=
EXTT13=
EXTT14=
EXTT15=
EXTT16=
EXTT17=
EXTT18=
PLAYORDER=
